<svg xmlns="http://www.w3.org/2000/svg" width="240" height="240" viewBox="0 0 240 240"><path fill="#3e3c40" d="M221.459 8.641c.107.074.21.17.301.263.873.9 1.504 2.31 2.087 3.42 2.898 5.516 4.996 11.032 6.392 17.107.329 1.43.773 3.023.69 4.494-.145 2.6-6.04 10.352-7.857 12.886-13.51 18.835-29.901 35.419-46.68 51.334a843 843 0 0 1-38.59 34.541q-8.775 7.35-17.686 14.536c-3.295 2.644-7.765 5.986-10.831 8.762 2.96 4.36 7.328 7.897 9.958 12.426 1.511 2.602.085 4.737-1.702 6.646-6.201 6.624-8.33 3.198-12.86-2.042a256 256 0 0 0-4.19-4.733c-7.193 5.632-14.441 11.833-21.516 17.668l-30.28 24.822-13.383 11.037c-2.4 1.991-4.704 4.1-7.227 5.939-2.987 2.176-4.965-.416-6.698-2.568-2.564-3.185-5.142-6.267-7.77-9.402-1.315-1.654-2.789-3.246-3.903-5.043-.736-1.187-.51-3.098.518-4.037 2.369-2.164 4.888-4.188 7.345-6.253l15.19-12.697L82.041 147.4c-2.94-3.835-6.651-7.684-9.305-11.659-2.764-4.141 6.308-12.64 10.487-9.075 2.293 1.956 3.853 3.995 5.765 6.359q1.887 2.347 3.884 4.602c1.768-1.202 4.495-3.483 6.29-4.871a929 929 0 0 0 18.747-15.13 725 725 0 0 0 31.237-26.975 653 653 0 0 0 36.14-36.289c12.654-13.736 26.202-29.888 36.173-45.72M109.625 141.522a165 165 0 0 0-.57-2.303c2.92-2.552 6.377-5.143 9.423-7.614a1255 1255 0 0 0 15.33-12.757 648 648 0 0 0 52.786-49.646c7.08-7.529 14.417-15.428 20.394-23.87 5.294-7.476 11.424-18.218 12.824-27.384-1.389 1.645-2.912 3.86-4.232 5.615q-4.126 5.457-8.314 10.866a576 576 0 0 1-64.273 66.635 1265 1265 0 0 1-31.345 26.411c-5.25 4.257-10.558 8.2-15.77 12.577 1.817-.262 7.932-.918 9.379.136 1.014.738 3.55 3.908 3.723 5.358.222 1.852-.176 4.135-.137 5.997 6.676-4.837 13.953-11.065 20.375-16.354a732 732 0 0 0 59.668-54.49c9.958-10.136 19.438-20.13 27.947-31.558 3.654-4.908 7.367-9.997 10.33-15.352-.193-2.586-1.072-5.828-1.724-8.335-.39-1.501-2.12-6.865-3.096-7.773-.194.83-.389 1.67-.605 2.495-5.594 21.368-21.875 38.486-36.844 53.986a664 664 0 0 1-53.572 49.675c-6.982 5.86-14.427 12.243-21.697 17.685M49.5 190.741a347 347 0 0 0-10.143-3.178c-.353 3.907-.958 7.89-1.302 11.878 2.846.973 5.794 1.728 8.62 2.798.634.24 1.359.499 2.005.699l.38-.03c.315-.585.425-10.599.44-12.167m2.408-2.01c3.616 1.077 7.387 2.137 10.975 3.255l.31.05c.291-.647.01-10.516.163-12.242-3.321-.597-7.234-1.752-10.398-2.907-.304 3.951-.778 7.85-1.05 11.845M25.872 224.94c1.114-.788 2.142-1.89 3.227-2.624a78 78 0 0 0-2.574-3.557c-.86-1.111-9.945-12.36-10.414-12.565-1.123.98-2.258 2.02-3.503 2.836 2.349 3.351 5.62 6.932 8.23 10.136 1.19 1.462 3.76 4.68 5.034 5.774m39.724-46.989c3.665 1.01 7.213 2.159 10.887 3.144.206-.266.585-10.49.666-11.852-2.525-.58-5.013-1.276-7.497-2.01-.75-.222-2.55-.686-3.199-.963-.218 1.54-.31 3.65-.42 5.252-.144 2.082-.359 4.356-.437 6.43m30.408-35.396c.543 2.06 1.74 5.943 3.091 7.594.591.723 1.986 1.567 2.78 2.095a51 51 0 0 0 4.583 2.624l.003-9.28c-.463-.75-2.106-3.595-2.792-3.76-2.76.181-4.947.319-7.665.727m-60.12 58.62c-3.581-.772-6.472-2.086-9.81-3.009-.702 3.776-1.227 7.655-1.796 11.454l10.44 3.648.847.392q-.024-4.078.15-8.152c.05-1.325.19-3.068.17-4.332m48.275-51.536c-.887.668-1.554 1.173-2.376 1.933 4.223 4.426 8.41 9.279 12.163 14.118.274.353 1.253 1.884 1.54 1.947l.051-.03c.8-.599 1.69-1.286 2.512-1.843-1.16-1.145-3.038-3.54-4.135-4.858a513 513 0 0 0-7.004-8.278c-.378-.44-2.36-2.775-2.751-2.99m8.817 19.981c-3.3-4.129-6.662-8.292-10.175-12.24-.585-.657-2.212-2.439-2.839-2.862-.326 4.397-.245 8.48-.58 12.896l8.568 2.526c.888.253 3.277 1.12 4 .73z"/><path fill="#de4c50" d="M80.216 129.327c1.581.03 3.39 2.6 4.353 3.766l4.279 5.18c1.351 1.64 2.33 3.077 3.996 4.398.555 1.38.914 2.766 1.268 4.203-4.305 2.236-1.944 6.991.982 2.986.773 1.373 1.059 1.759 2.17 2.874-2.76 4.363.18 6.168 2.523 1.815 2.386 1.581 4.88 2.842 7.218 4.401 1.079 1.042 1.901 2.092 2.865 3.303 2.117 2.658 4.924 5.185 6.464 8.223.191.377-.072.867-.278 1.184-1.286 1.29-2.65 2.381-4.097 3.473-2.105-.653-2.423-1.527-3.71-3.164q-1.168-1.481-2.43-2.886c-7.767-8.705-15.633-17.273-23.053-26.299-1.56-1.896-6.18-7.045-7.036-8.958.62-1.959 2.76-3.526 4.486-4.499"/><path fill="#3e3c40" d="M89.453 142.243c3.057.096 1.44 3.32-.173 4.399-1.329-.064-2.34-.456-1.824-2.062a4 4 0 0 1 1.997-2.337"/><path fill="#3e3c40" d="M81.472 132.977c1.625-.033 2.3.569 1.74 2.32-.264.827-.826 1.554-1.644 1.912-3.476.088-1.753-2.938-.096-4.232"/><path fill="#3e3c40" d="M110.58 167.01c3.313-.096 1.811 3.207.11 4.404-3.5.455-1.411-3.111-.11-4.404"/><path fill="#3e3c40" d="M102.293 157.395c3.52-.135 1.495 3.002.078 4.31-3.548.326-1.54-3.02-.078-4.31"/><path fill="#3e3c40" d="M85.847 137.554c2.878.238 1.12 3.667-.87 4.33-2.942-.336-1.06-3.575.87-4.33"/><path fill="#3e3c40" d="M106.277 161.945q.133.016.266.035c2.8.425 1.505 3.398-.262 4.492-3.377.64-.984-3.378-.004-4.527"/><path fill="#de4c50" d="M38.035 202.163c1.178.253 3.022.87 4.19 1.234q3.43 1.085 6.879 2.119c-1.255 1.381-3.432 3.17-4.9 4.433a571 571 0 0 0-6.148 5.083c-.372-2.752-.062-9.923-.021-12.869"/><path fill="#de4c50" d="M51.87 191.371c3.711.927 7.287 2.206 11.01 3.093-1.21 1.244-3.567 3.109-4.961 4.274q-3.105 2.566-6.26 5.07c-.013-.683.007-1.416.032-2.1.127-3.43-.025-6.915.179-10.337"/><path fill="#de4c50" d="M65.618 180.468c3.048 1.076 7.622 2.374 10.732 2.942-1.159 1.193-3.393 2.903-4.755 3.999-1.915 1.496-4.037 3.352-5.857 4.947-.042-3.984-.126-7.896-.12-11.888"/><path fill="#de4c50" d="M79.347 169.988c3.268 1.022 6.542 1.885 9.821 2.889l-4.822 3.996c-1.7 1.453-3.537 3.06-5.364 4.34-.054-3.575.236-7.597.365-11.225"/><path fill="#de4c50" d="M77.443 155.73c.26.305.114 1.567.088 2.018-.173 3.027-.27 6.051-.343 9.081a184 184 0 0 1-7.272-2.077c-.785-.17-1.742-.446-2.534-.649 1.374-1.305 3.106-2.663 4.577-3.886 1.806-1.5 3.628-3.06 5.484-4.487"/><path fill="#de4c50" d="M63.94 166.542c.259.488-.291 5.214-.363 6.115a87 87 0 0 0-.222 4.902 214 214 0 0 1-6.922-2.02l-2.334-.665c3.133-2.758 6.624-5.61 9.841-8.332"/><path fill="#de4c50" d="m50.387 177.9.162.058c.1.632-.38 4.11-.47 4.856a60 60 0 0 0-.441 5.322c-1.974-.423-4.449-1.247-6.39-1.849-.548-.222-1.557-.46-2.221-.694 2.97-2.558 6.31-5.19 9.36-7.692"/><path fill="#de4c50" d="M36.8 188.942c.165.606-.752 8.75-.871 9.997a210 210 0 0 0-5.56-1.923c-.72-.225-1.561-.432-2.298-.63 2.312-2.335 6.123-5.208 8.73-7.444"/><path fill="#de4c50" d="M24.609 212.568c1.031.225 2.96.913 4.017 1.26l7.556 2.496c-.683.722-1.727 1.586-2.493 2.257q-1.331 1.115-2.626 2.27a99 99 0 0 0-3.755-4.882c-.803-.988-2.01-2.38-2.7-3.4"/><path fill="#de4c50" d="M23.342 200.098c.128.799-1.175 7.822-1.327 9.333-.593-.612-1.13-1.264-1.68-1.914-.69-.78-1.562-1.963-2.224-2.807 1.646-1.567 3.513-3.084 5.231-4.612"/></svg>