<svg xmlns="http://www.w3.org/2000/svg" width="1024" height="1024" viewBox="0 0 1024 1024"><path fill="#282628" d="M186.432 214.541c-3.756 15.826-10.704 32.463-14.999 48.27-1.136 4.179-3.58 10.706-8 12.167-1.508-.177-3.285-.512-4.26-1.755-4.414-5.621-8.139-13.872-11.472-20.198l-15.697-29.544a8616 8616 0 0 0-73.017-135.98C55.51 81.11 34.262 44.63 35.289 40.217c.288-1.237 1.047-2 2.184-2.525 1.361-.628 3.085-.56 4.487-.138 5.84 1.76 11.71 5.824 17.202 8.64 10.655 5.464 21.458 10.67 32.168 16.03q69.63 34.794 138.896 70.303c9.529 4.985 37.58 19.13 47.836 25.624.526.333 1.895 3.919 1.177 6.048-3.492 4.39-15.864 7.362-21.387 9.008a1563 1563 0 0 1-35.617 9.92c2.804 2.519 7.003 7.184 9.716 9.996l19.57 20.252 59.626 61.02 209.606 211.169 53.477 53.524c7.982 7.986 21.015 21.697 29.259 28.774 35.134.02 70.597-4.818 105.542-3.685 8.938 6.715 37.932 34.516 43.704 43.157-.71 2.229-1.639 4.611-2.451 6.824-13.584-.3-32.731.704-46.677 1.002-15.37.329-37.826.077-52.747 1.434a2161 2161 0 0 1 32.507 32.009c5.604 5.581 11.898 12.208 17.733 17.351 6.431-.425 14.466.171 21.185.003 14.814-.37 29.752-.693 44.561-.918 5.855-.089 22.811.36 27.623-.758-3.048-3.57-7.226-.604-10.014-3.485-.28-1.998.513-3.319 1.288-5.238-5.62-5.943-21.244-21.129-27.409-26.332-8.13.247-54.905 2.235-59.896-1.949 2.099-5.387 33.551-4.307 39.009-5.675 4.577-1.147 23.705-4.009 26.494-1.835 10.238 7.98 47.353 41.625 52.38 50.741-1.003 2.404-1.636 3.918-2.946 6.223 1.118.862 2.098 1.622 3.279 2.411 2.926-.291 4.231-.38 7.237-.272 4.775 2.343 51.133 48.353 54.264 53.908-.669 2.128-1 3.534-2.169 5.478-12.813-.37-25.688.03-38.512-.013a5194 5194 0 0 0-64.377-.165c4.565 5.553 9.504 10.788 14.518 15.937 12.029 12.355 23.521 25.355 35.699 37.553 25.129 2.486 60.425.816 84.632 6.58-1.7-1.145-4.103-2.402-4.835-4.173.672-1.968 1.916-2.582 3.767-3.816-4.487-7.487-12.469-18.656-18.95-24.223-9.765.362-33.41 2.591-41.617-.735l-.479-.803c4.1-4.854 28.535-5.63 35.353-5.967-1.784-1.819-3.786-3.741-5.357-5.722-8.524.227-39.626 2.871-45.35-.134l-.094-1.094-.429.646.354.344.422-1.244c7.451-3.666 44.072-6.855 53.165-6.762 5.453 2.615 9.868 7.895 13.741 12.615 23.973 29.216 42.734 63.733 56.36 98.909 1.084 2.797 4.386 12.216.008 13.67-23.84.977-49.303-8.928-72.235-13.587 2.049 2.833 4.127 5.791 6.225 8.574 8.272 1.641 22.341 3.776 29.858 6.581 13.451 5.02 33.74 9.717 45.64 16.462 5.401 8.833 20.237 79.301 17.366 88.724-.224.735-.578 1.539-1.326 1.835-6.238 2.467-79.389-10.138-88.4-13.678-8.456-9.685-24.419-60.161-26.629-75.259-.217-1.477-.957-2.383-1.834-3.654-.206-2.154.339-4.201.739-6.354-1.822-1.261-3.256-2.559-5.387-2.868l-.825.596c-.064.529 1.669 12.021 1.752 12.226 1.487-1.116 2.072-2.193 3.282-2.057.453 2.025.533 1.089-.032 2.92-1.389.617-1.48.517-3.033.598-2.381 11.81 19.634 58.344 11.769 64.026-2.069 1.496-6.089.843-8.369.184-7.742-2.241-15.51-6.848-22.734-10.435-32.477-16.13-63.598-34.688-88.989-60.919-3.251-3.359-7.599-7.25-9.645-11.465-.695-1.431-1.193-3.248-.605-4.799.561-1.48 1.966-2.481 3.432-2.942 1.361-.428 2.756-.425 4.167-.401.481-12.402 1.207-24.993 2.374-37.375.266-2.818.427-4.522 3.393-5.247.882.524 1.065.374 1.148 1.377 1.229 14.977.656 33.908.486 48.657 3.761 4.521 8.244 9.208 12.856 12.879.004-6.731-.649-27.817 2.816-33.103l.807-.157c4.11 3.821 2.922 32.712 2.334 39.109 3.501 2.435 6.11 4.378 9.404 7.082 2.183-.373 4-.734 6.225-.838.414 2.407.513 3.933 1.653 6.107l.55.166c1.292-4.085-4.448-77.246-5.315-87.681-1.85-2.924-20.131-21.296-23.45-24.448-9.381-8.91-20.645-21.988-30.046-30.335 2.737 31.008 3.211 64.098 4.552 95.356.185 4.306-5.948 7.572-9.643 4.332-17.956-15.741-33.744-33.982-51.339-50.162.015-10.254.65-15.62 1.24-25.453-3.439-1.801-2.878-1.972-4.607-5.247.269 4.568.944 12.162-1.87 15.977-2.836 3.8-6.561 1.541-9.176-1.126-15.191-15.495-31.386-30.708-46.1-46.587.468-8.904 1.573-19.385 2.301-28.3.597-7.318.773-32.537 6.369-36.429l.833.452c3.04 6.708.982 46.092.998 56.594 2.083 3.06 2.952 4.079 5.517 6.763.165-4.001.374-19.361 3.503-21.716l.687.247c2.85 5.119 1.519 21.137 1.488 28.04a1617 1617 0 0 0 16.611 17.239c1.99-.671 3.994-.985 6.058-1.385 1.454-1.973-.398-54.5.382-61.078.294-2.481.533-16.008.494-19.412-5.464-6.089-13.924-13.742-19.882-19.799-9.005-9.155-18.876-19.832-28.301-28.296-.741 9.899-.81 20.643-1.15 30.579l-1.445 33.156c-.317 7.463.308 22.585-2.878 28.981-4.888 3.526-18.184-12.223-21.435-15.999-7.193-8.358-20.459-18.805-26.061-27.82a2203 2203 0 0 1 4.521-57.859c.942-11.149 1.63-23.606 2.848-34.547L337.384 365.46 237.22 265.276l-31.808-31.951c-6.174-6.225-12.53-12.931-18.98-18.784"/><path fill="#d43444" d="M711.097 677.02c23.78-.343 47.675.275 71.465-.122 6.386-.107 12.813-.233 19.192.025.102 2.703.037 3.214 1.943 5.268-5.773 1.013-30.035 4.587-32.79 7.72l.368.74c5.499 2.382 42.103.59 49.814-.008 7.581 6.816 16.318 17.589 24.119 25.279-6.417.011-36.671-.071-41.15 2.505v.754c3.722 2.003 40.142 2.042 46.979 2.203l6.107 6.062a1713 1713 0 0 0-95.139-.198c-7.903-6.594-16.138-15.838-23.426-23.323a1098 1098 0 0 0-27.482-26.905"/><path fill="#d43444" d="M672.489 699.925c9.398 7.957 18.636 17.892 27.432 26.656 6.866 6.841 16.461 15.575 22.294 23.021.367 31.098 2.012 60.425 3.797 91.454-6.94-6.139-13.161-11.697-18.628-19.281 1.006-7.49 2.558-47.938-.399-53.389l-.648.074c-3.721 7.122-3.105 40.952-2.766 49.879-5.125-4.351-10.159-9.38-15.023-14.064-.029-6.066.19-38.266-3.997-41.505-3.595 1.049-5.685 17.527-6.314 21.463-3.439-1.801-2.878-1.972-4.607-5.247-1.167-26.957-1.145-52.044-1.141-79.061"/><path fill="#e15e6b" d="M801.754 676.923c2.145.039 10.934-.46 11.621-.192 1.118.862 2.098 1.622 3.279 2.411-4.768.943-8.273 1.647-12.957 3.049-1.906-2.054-1.841-2.565-1.943-5.268"/><path fill="#f7f7f7" d="M308.084 289.535c1.767 1.28 8.529 8.191 10.4 10.071l24.698 25.158 86.542 87.028 275.194 275.701c36.972 36.951 74.704 73.329 110.032 111.861 20.035 21.852 49.881 48.479 64.303 73.837-2.866-1.52-5.903-3.35-8.735-4.986-3.085-2.024-6.267-3.906-9.438-5.791-32.311-19.221-57.602-47.39-83.535-74.122a4058 4058 0 0 0-55.488-55.765L519.494 530.273 365.731 376.371l-42.555-42.741c-9.678-9.59-19.866-18.885-28.85-29.123 3.389-7.808 6.651-10.641 13.758-14.972"/><path fill="#f7f7f7" d="M67.18 63.856c2.042.389 11.642 5.467 14.437 6.83 30.211 14.741 60.221 30.466 90.185 45.754l59.679 30.182c9.006 4.559 18.32 8.894 27.114 13.803l-16.233 4.52c-18.216 5.158-37.229 10.087-55.249 15.408L79.422 74.346c-4.612-4.543-8.491-6.74-12.242-10.49"/><path fill="#f7f7f7" d="M65.99 73.716c3.382 1.653 23.371 22.11 26.931 25.594l88.966 87.827c-5.349 16.044-10.349 33.386-15.168 49.658-1.716 5.62-3.492 10.862-5.879 16.24-9.894-18.24-18.542-37.579-28.581-55.774-7.003-12.692-13.738-25.398-20.579-38.168l-23.377-43.387c-7.393-13.495-15.645-28.18-22.313-41.99"/><path fill="#d43444" d="M799.924 829.227c3.797 2.225 15.576 14.177 19.968 17.812 7.091 5.87 16.757 12.323 23.245 18.278 3.382 30.1 6.511 46.247 15.156 75.581l-33.435-17.441c-.627-.256-1.04-.412-1.511-.923-.538-.584-.118-2.47-.037-3.261.113-1.114.255-2.191.217-3.314-.166-4.976-8.36-41.981-11.312-44.232-.573-.437-.56-.222-1.36-.023-2.33 7.342 2.227 36.506 3.414 45.208l-8.746-5.039c.006-8.24-1.024-18.656-1.546-27.089a1513 1513 0 0 0-4.053-55.557"/><path fill="#d43444" d="M833.816 801.721c29.1 3.166 56.833 3.843 85.628 11.131 3.417 4.084 9.682 15.992 12.609 21.296-5.78-.817-39.328-5.127-41.938-1.619 1.475 3.943 18.939 7.975 23.269 9.114 7.494 1.78 15.103 2.936 22.728 3.99 2.414 4.028 3.975 7.821 5.582 12.2-13.961-3.498-63.244-11.244-72.743-18.478-3.813-2.904-34.782-35.29-35.135-37.634"/><path fill="#d43444" d="M691.486 575.713c14.325-.95 15.074.235 24.694 10.854-8.889-.252-61.19-4.663-65.201 4.246 2.416 2.301 21.198 1.029 25.427.927q21.876-.587 43.759-.871c5.204 3.643 8.645 7.846 12.826 12.558l-10.535.142q-41.026 1.218-82.07 1.513c-8.772-7.241-18.211-18.125-26.548-26.375 9.538-.583 20.764-.445 30.496-.727a1441 1441 0 0 0 47.152-2.267"/><path fill="#f7f7f7" d="M876.302 887.204a66.1 66.1 0 0 1 16.189 9.663c7.299 5.939 19.591 19.246 26.587 26.418 13.207 13.538 28.369 27.781 40.62 41.954-11.13-1.046-22.745-3.362-33.763-5.421-1.689-5.364-6.033-18.163-11.448-20.114-1.83.299-1.326.288-2.956 1.764-.311 2.901-.791 4.823-2.192 7.442-2.654-5.149-4.525-8.93-8.22-13.376l-7.951 3.396c-6.64-10.599-13.538-38.818-16.866-51.726"/><path fill="#d43444" d="M579.087 606.756c4.421 3.106 19.08 19.026 23.478 23.665-.28 27.247-2.935 54.442-3.061 81.962l-13.553-13.573c.127-10.683 2.208-25.32 3.486-36.19.931-10.477 1.801-19.657.709-30.211-5.886 13.824-8.436 45.269-9.234 60.796-2.765-2.841-5.776-5.712-8.613-8.504.676-18.174 3.314-36.984 4.576-55.179.507-7.309 1.205-15.537 2.212-22.766"/><path fill="#f7f7f7" d="M896.379 879.987c13.102 1.277 49.138 12.279 59.593 19.543-4.039.708-19.146-.185-20.496 3.866 1.982 3.237 8.979 4.99 12.586 5.969l-3.111 3.638c-3.564 6.39 12.535 9.212 16.254 9.845 1.371 9.889 4.339 22.804 6.204 32.925-2.871-2.955-5.517-6.208-8.341-9.214-14.922-15.883-30.7-30.985-45.549-46.947-5.842-6.281-12.188-12.619-17.14-19.625"/><path fill="#f7f7f7" d="M204.07 184.53c4.547-.37 25.351 23.039 29.079 27.084-9.138 3.559-11.244 5.776-16.736 13.639-4.361-1.931-24.223-22.791-28.862-27.508l2.806-9.451c4.933-1.185 8.874-2.283 13.713-3.764"/><path fill="#f7f7f7" d="M296.333 278.497c2.353.394 3.517 1.869 5.198 3.52-8.369 4.593-10.33 7.023-14.326 15.675-1.608-1.108-3.431-3.124-4.843-4.566 3.556-8.419 5.389-11.287 13.971-14.629"/><path fill="#f7f7f7" d="M238.11 219.397c2.847.153 4.013 1.891 5.956 3.917-8.798 3.224-11.341 5.746-15.395 14.034l-.77 1.107-.905-.132c-7.795-8.635 4.677-15.435 11.114-18.926"/><path fill="#f7f7f7" d="M272.866 253.889c2.489.298 4.246 2.751 5.998 4.642-8.511 3.123-11.055 5.187-14.954 13.261l-.514.887-.878-.077c-8.584-7.475 4.788-15.35 10.348-18.713"/><path fill="#f7f7f7" d="M259.277 243.53c4.741-.38 4.954-.157 8.287 3.199-7.282 2.473-9.646 4.328-14.307 10.355-1.056 1.827-1.241 2.457-2.936 2.925-2.738-1.513-2.25-4.705-1.252-7.314 1.888-4.937 5.707-6.993 10.208-9.165"/><path fill="#f7f7f7" d="M249.59 231.467c1.973.058 3.129.401 4.438 1.675-.129 3.499-7.937 6.767-10.485 9.669-1.809 2.06-2.298 3.08-3.588 5.419l-.608.918c-1.649-.558-2.15-1.627-3.433-3.102 2.629-8.738 5.314-11.326 13.676-14.579"/><path fill="#f7f7f7" d="M283.845 266.897c3.211.349 4.277 1.784 6.484 3.996-8.274 2.592-10.206 4.926-14.553 12.406l-.758.94-1.208.084c-7.849-5.267 5.432-14.862 10.035-17.426"/><path fill="#f7f7f7" d="M909.339 948.91c1.401-2.619 1.881-4.541 2.192-7.442.947 6.13 2.003 12.927 3.583 18.888-3.884-4.902-3.258-6.517-5.775-11.446"/><path fill="#f7f7f7" d="M948.062 909.365c3.038.932 6.231 1.862 9.223 2.897-4.476.475-7.827.645-12.334.741z"/></svg>