<svg xmlns="http://www.w3.org/2000/svg" width="1024" height="1024" viewBox="0 0 1024 1024"><path d="M580.462 51.792c2.138-.16 4.213-.204 6.352-.252a361.33 361.33 0 0 1 216.295 63.932c90.427 62.519 145.163 161.506 158.294 270.281 20.77 172.061-61.55 347.856-188.917 461.295-88.543 78.86-206.536 129.773-326.361 131.938-24.762.179-46.46-.904-71.124-4.804a385.25 385.25 0 0 1-194.114-92.034C106.623 816.016 66.316 728.017 61.068 629.35c-7.831-147.249 54.71-282.562 151.349-390.493C308.195 131.888 435.849 60.139 580.462 51.792"/><path fill="#f5f4f2" d="M579.73 59.209c86.73-4.609 180.718 23.543 243.144 84.14 186.446 180.979 130.53 474.252-36.001 647.717-98.947 103.067-214.717 165.335-357.432 169.902-93.084.413-174.585-23.215-245.167-86.209-71.385-63.71-110.314-148.825-115.617-244.012C60.23 485.523 121.092 351.99 216.71 245.411 310.664 140.689 436.942 66.717 579.73 59.209"/><path d="M568.432 96.712c3.486-.337 8.342-.224 11.919-.281 84.362-1.34 162.441 26.515 222.749 86.455 66.116 65.712 94.196 152.232 94.405 244.296.299 132.062-63.752 261.63-155.986 353.837-81.94 81.916-195.27 139.136-312.567 139.505-81.321 1.339-162.275-23.064-224.548-76.805-19.605-16.919-34.903-36.074-48.957-57.782a339.56 339.56 0 0 1-54.586-166.881C87.163 404.964 250.613 192.155 448.345 120.97c39.414-14.189 78.385-21.629 120.087-24.258"/><path fill="#f5f4f2" d="M582.063 572.845 722.9 669.517c22.168 15.157 44.886 31.382 67.57 45.524-6.959 12.318-21.804 28.695-31.249 39.233-47.979 53.525-98.538 91.817-163.597 122.013-47.889 22.107-92.309 32.226-144.549 36.929-22.452-71.229-29.901-147.182-26.38-221.587a1071 1071 0 0 1 5.496-65.03c13.906-.892 32.967-3.839 46.501-6.37 29.272-5.475 58.356-15.126 83.965-30.485 7.934-4.759 16.065-9.101 21.406-16.899"/><path fill="#f5f4f2" d="M758.815 155.444c2.699.135 9.175 5.358 11.482 7.155a296.8 296.8 0 0 1 47.125 45.196c58.565 69.378 80.033 164.427 72.457 253.503-8.449 1.749-22.447 3.138-31.237 4.208l-45.41 5.827c-45.599 5.955-92.578 12.822-138.113 18.037-12.271 1.313-24.183 3.023-36.401 4.613-14.155 1.841-28.131 3.324-42.215 5.799.525-53.459-6.276-92.082-45.562-132.664 5.145-11.425 17.599-29.803 24.698-40.506a529.96 529.96 0 0 1 183.176-171.168"/><path fill="#f5f4f2" d="m482.082 117.148.779.077c.286.34.768.873.894 1.272 18.135 57.431 19.108 119.829 14.243 179.398-1.242 15.2-2.42 32.59-6.726 46.592-2.649.864-5.587 1.76-8.254 2.361-45.07 10.163-86.914 37.407-110.245 77.889-3.085 5.353-6.187 11.194-9.523 16.662-9.439-4.773-23.737-15.402-32.692-21.744a6249 6249 0 0 1-52.336-37.441c-19.226-14.084-38.496-28.266-57.606-42.51-6.909-5.15-15.137-11.141-21.233-17.099a294 294 0 0 1 3.703-5.421 535.17 535.17 0 0 1 226.299-182.366c14.866-6.176 36.969-14.875 52.697-17.67"/><path fill="#f5f4f2" d="m338.915 516.708.669.109c1.149 3.129-9.165 31.05-10.742 35.373 13.307 30.048 31.897 46.562 56.348 66.463-18.74 34.994-51.387 74.279-77.072 105.02-31.924 38.209-70.357 74.728-107.181 108.095-6.415-6.486-11.412-11.692-17.4-18.607a391 391 0 0 1-12.972-16.28c-52.163-69.4-73.184-163.676-61.095-249.118 7.761-.414 18.184-2.214 26.189-3.278l46.183-6.156c51.975-7.186 105.101-15.208 157.073-21.621"/><path fill="#af4847" d="M885.274 468.687c1.913-.261 1.564-.508 3.037.181.973 4.09-3.057 26.778-3.881 31.675-10.01 59.506-33.803 116.16-64.183 168.025-8.028 13.705-16.767 26.891-25.441 40.193-6.7-3.593-13.919-8.553-20.269-12.772a2184 2184 0 0 1-28.167-18.937l-74.793-51.116c-29.345-19.837-58.176-40.031-87.748-59.567 5.957-21.943 9.202-38.156 11.811-60.689 30.398-4.549 62.32-7.828 92.957-11.75z"/><path fill="#f5f4f2" d="M512.923 334.908c2.193 1.906 6.339 8.909 8.088 11.711-26.716 17.504-62.086 90.075-71.956 121.205 36.523 10.234 60.658 21.547 91.647 42.502-3.549 2.042-6.199 3.528-8.08 7.462-4.364 9.811 6.014 20.536 15.785 16.159 6.507-2.915 10.086-11.743 6.034-17.449-17.913-25.222-70.729-44.359-97.229-53.166 15.66-39.444 29.35-68.538 56.296-101.8 31.161 16.46 47.384 64.01 51.743 97.349.759 3.008 1.344 13.13 1.433 16.53.905 34.561-6.711 80.654-18.112 113.12-10.466 5.959-19.484 9.346-30.683 13.412-39.207 14.233-76.775 17.735-118.104 18.293-27.604-18.663-48.588-38.001-63.7-68.168 11.702-28.424 12.984-52.962 22.21-79.463.091 4.306.473 9.207 4.183 12.1a7.03 7.03 0 0 0 5.546 1.368c10.174-1.713 12.32-12.765 10.959-21.392 15.296-2.706 33.926-1.914 49.339-1.124 1.105-2.411 2.01-5.134 2.986-7.628 14.837-37.909 32.836-76.643 62.048-105.748 5.533-5.511 13.207-10.729 19.567-15.273"/><path d="M442.877 491.25c36.882 12.33 74.482 26.794 101.968 55.398l-5.189 19.057c-10.596 5.069-24.406 9.661-35.501 13.324-31.469 10.058-56.036 12.938-88.415 14.578 5.974-39.248 14.027-65.638 27.137-102.357"/><path fill="#f5f4f2" d="M446.628 499.263c21.393 4.404 54.898 21.981 73.11 34.411 5.582 3.81 13.06 10.535 18.173 15.287l-3.169 12.032a950 950 0 0 1-34.083 12.597c-31.371 8.53-45.632 10.854-77.822 13.814 5.913-33.226 12.709-56.689 23.791-88.141"/><path d="M395.337 486.719c8.462-.523 16.778.472 25.15 1.507-12.689 34.84-18.486 60.485-26.377 96.427-4.077-3.563-7.827-7.109-11.752-10.829-13.487-13.091-27.531-29.58-36.456-46.102 2.322-8.04 9.343-26.74 14.603-32.947 6.185-7.296 25.363-7.559 34.832-8.056"/><path fill="#f5f4f2" d="M393.015 493.208c4.635-.646 14.164-.206 19.032-.072-3.276 9.731-7.082 20.078-9.686 29.94-4.314 16.343-8.079 32.839-12.269 49.249l-8.934-8.58c-13.512-14.61-17.935-20.127-28.374-37.379 4.136-10.76 7.301-18.876 12.358-29.131 10.205-2.578 17.579-3.331 27.873-4.027"/><path fill="#af4847" d="m391.016 622.434 6.792 4.513c8.365.425 17.433.13 25.864.006-10.143 77.651-8.929 159.088 7.251 235.81 3.769 17.872 8.3 33.719 13.527 51.104-57.832 1.52-98.603-4.336-152.574-25.12-31.178-12.825-61.258-29.964-86.356-52.592 54.951-49.483 103.364-99.51 147.757-158.901 13.912-18.614 26.21-34.449 37.739-54.82"/><path fill="#af4847" d="M568.181 103.208c7.208-.964 23.449-.307 30.82-.046 57.374 2.026 106.497 17.946 155.176 47.707-16.749 10.175-31.422 19.156-47.475 30.457-45.082 31.735-80.76 68.845-114.7 111.989-17.849 23.699-30.737 43.062-45.35 68.919-6.105-4.814-11.211-9.474-17.708-13.829-4.518-8.568-6.478-15.883-13.616-22.972-4.934 2.49-10.681 7.391-15.103 10.952.327-6.87 1.513-14.374 2.338-21.264a585 585 0 0 0 2.696-28.305c4.174-61.174.634-112.977-15.62-171.976 25.298-7.207 52.325-10.199 78.542-11.632"/><path fill="#af4847" d="M195.191 327.727c10.016 7.416 21.291 16.754 31.576 24.577a3265 3265 0 0 0 64.224 47.277c23.04 16.693 45.75 33.155 69.973 48.133-10.131 22.986-13.717 36.783-19.621 60.958-28.203 5.249-56.324 8.973-84.726 12.816-48.509 6.413-97.887 13.933-146.36 19.781a464.8 464.8 0 0 1 53.782-162.016c9.79-17.926 20.276-34.282 31.152-51.526"/><path fill="#f5f4f2" d="M475.289 360.024c.429.374.218.102.35.972-21.449 24.114-39.83 66.314-51.542 95.882-13.899-1.619-34.389.587-48.111 2.421l-.653-.383c-.238-1.375.251-2.615.777-3.9 17.922-43.824 56.786-76.326 99.179-94.992"/><path fill="#f5f4f2" d="M523.007 352.516c19.096 12.765 37.884 33.438 48.494 53.57 28.083 53.282 19.049 111.51 2.634 166.383-3.322 2.098-6.618 4.45-9.854 6.696l-7.183 5.024c10.385-38.62 19.087-80.334 15.224-120.445-3.203-33.255-14.078-66.799-36.933-91.964-4.851-5.342-11.257-10.414-16.828-15.052z"/><path fill="#f5f4f2" d="m446.317 367.084.342.19c-3.063 2.869-16.34 11.274-21.649 15.539-26.648 21.406-45.504 44.297-56.517 77.194-1.56.515-3.278 1.397-4.79 2.115l-.309-.266c-.393-1.379.076-2.034.658-3.654a158.53 158.53 0 0 1 82.265-91.118"/><path fill="#f5f4f2" d="M541.036 517.252a5.757 5.757 0 0 1 8.004 6.196 5.756 5.756 0 1 1-8.004-6.196"/><path fill="#f5f4f2" d="M367.291 467.51c1.265-1.442 2.526-1.008 4.308-.993 7.321 4.803-1.487 14.55-7.151 11.92-2.495-3.576.38-8.181 2.843-10.927"/><path fill="#f5f4f2" d="M367.291 467.51c1.265-1.442 2.526-1.008 4.308-.993.792 5.278-1.901 5.34-6.318 7.304.995-2.374 1.736-3.735 2.01-6.311"/><path d="M916.493 391.533c18.745-.541 18.958 18.293 3.008 25.494-14.598 2.069-18.835-13.867-8.933-22.349 1.582-1.355 4.003-2.311 5.925-3.145"/><path fill="#f5f4f2" d="M917.925 396.384c11.248 2.342 6.808 10.731-.184 15.27-9.81-3.092-7.979-10.992.184-15.27"/><path d="M906.365 512.569c17.429-1.798 19.111 18.252 2.294 25.753-13.278 2.909-21.113-18.154-2.294-25.753"/><path fill="#f5f4f2" d="M907.676 517.336c9.926 1.385 7.412 10.202.646 14.797-3.458.414-7.435-1.441-6.782-5.553.724-4.561 2.749-6.502 6.136-9.244"/><path d="M603.548 887.075c2.01-.177 4.389-.263 6.29.459a10.52 10.52 0 0 1 6.029 5.852c3.549 8.535-1.983 16.845-10.018 20.086-18.818.283-16.869-20.353-2.301-26.397"/><path fill="#f5f4f2" d="M605.094 892.957c7.789 2.364 7.728 11.743-.673 14.812-8.756-1.007-7.447-11.12.673-14.812"/><path d="M800.531 734.516c17.449.196 15.881 20.088-1.701 25.027-9.265-.644-15.561-5.654-11.141-15.827 2.277-5.241 7.643-7.59 12.842-9.2"/><path fill="#f5f4f2" d="M800.774 740.47c9.179 1.36 6.154 10.841-2.443 13.426-11.89-2.139-4.404-10.248 2.443-13.426"/><path d="M708.396 825.469c16.665 2.939 14.71 22.196-.908 27.147-15.249-.355-14.822-16.371-5.162-24.076 1.748-1.394 4.009-2.23 6.07-3.071"/><path fill="#f5f4f2" d="M708.3 831.878c9.008 2.73 6.223 11.487-1.555 14.72-8.915-3.814-5.296-11.012 1.555-14.72"/><path d="M897.845 284.466c18.068 2.416 15.822 20.869-.486 25.584-14.96-.63-16.221-13.628-6.041-22.178 1.749-1.468 4.411-2.499 6.527-3.406"/><path fill="#f5f4f2" d="M896.209 289.962c10.154-.038 10.292 9.29 2.193 14.382-11.108-.614-7.636-8.941-2.193-14.382"/><path d="M365.286 924.503c18.777-.61 19.178 15.882 4.591 24.902-18.26 2.145-18.779-15.849-4.591-24.902"/><path fill="#f5f4f2" d="M366.141 929.942c11.098-.311 8.095 7.717 3.228 13.532-11.639.195-8.655-7.631-3.228-13.532"/><path d="M488.189 921.482c10.766-.113 16.2 6.254 11.895 17.08-1.839 4.624-5.403 6.319-9.818 7.948-18.266.469-16.839-17.452-2.077-25.028"/><path fill="#f5f4f2" d="M489.947 926.842c8.857 3.49 5.246 10.413-1.155 14.196-9.867-3.084-5.659-10.419 1.155-14.196"/><path d="M846.856 187.463c16.715-.4 16.691 20.172.455 25.104-14.335.234-16.389-13.648-6.725-21.75 1.737-1.456 4.191-2.44 6.27-3.354"/><path fill="#f5f4f2" d="M846.603 192.928c11.088-.024 6.546 8.669 1.866 13.699l-.573-.019c-10.932-.47-7.156-8.813-1.293-13.68"/><path d="M864.507 628.521c17.826-.598 16.498 18.085 1.426 25.249-2.914.417-5.63.4-8.123-1.164-7.262-4.556-5.257-16.132.798-20.889 1.924-1.512 3.781-2.258 5.899-3.196"/><path fill="#f5f4f2" d="M864.144 634.431c10.994.235 7.906 8.367 1.84 13.501-11.143.478-6.607-8.55-1.84-13.501"/><path d="M258.121 891.051c17.744 2.219 16.631 19.788 1.456 25.492-17.2.266-16.78-19.635-1.456-25.492"/><path fill="#f5f4f2" d="M258.2 896.342c10.47.873 6.173 9.573 1.222 14.357-10.334-1.077-6.66-9.543-1.222-14.357"/><path d="M86.395 632.508c15.91-.862 17.05 19.835.806 24.504-14.689 2.729-19.028-18.58-.806-24.504"/><path fill="#f5f4f2" d="M86.49 638.467c2.746.148 3.865.201 5.767 2.142 1.963 4.51-2.214 8.357-5.484 10.82-10.477.844-6.432-8.849-.282-12.962"/><path d="M666.529 71.534c1.617.03 3.929.567 5.409 1.199a10.26 10.26 0 0 1 5.72 6.225c2.82 8.405-2.651 15.368-10.618 17.735-14.694-.438-17.443-12.957-6.932-21.867 1.704-1.443 4.344-2.428 6.421-3.292"/><path fill="#f5f4f2" d="M666.313 77.374c9.473 2.57 6.492 9.226.3 13.69-9.678-.899-7.238-9.5-.3-13.69"/><path d="M169.119 824.067c17.268.016 16.051 18.583 1.274 25.478-16.34.103-16.891-19.207-1.274-25.478"/><path fill="#f5f4f2" d="M168.811 829.801c11.249.334 6.747 8.529 1.55 13.497-9.459 1.506-7.495-8.56-1.55-13.497"/><path d="M762.778 113.037c17.5-.407 16.093 18.794.599 24.494-16.984.323-16.779-17.955-.599-24.494"/><path fill="#f5f4f2" d="M761.369 118.963c11.016-.377 8.648 6.56 3.242 12.506-1.721.069-3.663.162-5.196-.77a4.35 4.35 0 0 1-2.068-3.11c-.492-3.491 1.914-6.288 4.022-8.626"/><path d="M437.233 95.534c1.958.087 4.122.287 5.926 1.102a9.84 9.84 0 0 1 5.256 5.66c3.099 8.657-2.987 15.796-11.028 18.304-16.974-.1-15.992-18.629-.154-25.066"/><path fill="#f5f4f2" d="M436.352 101.422c10.324-.014 6.809 8.648 1.569 13.309-10.755-.938-7.801-8.353-1.569-13.309"/><path d="M552.46 66.509c16.106.626 15.629 19.12-.453 24.65-17.463-1.28-16.258-18.74.453-24.65"/><path fill="#f5f4f2" d="M551.002 72.4c10.873.653 7.396 7.7 1.533 12.57-9.863.09-7.101-8.094-1.533-12.57"/><path d="M117.579 412.044c16.695-.93 16 21.315-.241 24.808-15.585.421-15.355-17.921.241-24.808"/><path fill="#f5f4f2" d="M118.283 417.872c10.453 1.577 4.237 10.016-1.009 13.752-10.223-2.847-5.163-9.858 1.009-13.752"/><path d="M89.048 522.087c15.852-.943 15.118 20.166-.915 24.371-15.1.563-16.425-20.857.915-24.371"/><path d="M174.308 311.117c18.541-.719 11.754 20.463-.925 24.47-4.514.008-5.571-.827-9.368-3.061-5.585-9.991-.414-18.903 10.293-21.409"/><path fill="#f5f4f2" d="M172.083 316.904c9.117.17 7.659 7.297 1.925 11.745-9.921.338-6.563-7.133-1.925-11.745"/><path d="M110.701 734.553c5.764-.4 8.121 1.775 11.649 5.838 1.181 9.552-.48 15.081-9.839 18.942-14.495.624-17.196-18.883-1.81-24.78"/><path fill="#f5f4f2" d="M110.136 740.355c9.551.426 7.147 9.064.647 13.287-2.115-.189-4.059-.785-4.793-2.846.552-2.496 2.598-3.761 4.663-5.506-.311-1.898-.425-3.013-.517-4.935"/><path d="M247.945 225.115c3.669-.194 8.703.647 9.757 4.459 2.891 10.456-5.045 16.191-12.596 19.131-16.698-1.591-12.42-20.623 2.839-23.59"/><path fill="#f5f4f2" d="M245.515 230.88c9.854 1.622 7.172 6.893 1.228 11.71-9.869-1.086-6.474-7.238-1.228-11.71"/><path d="M333.475 151.104c14.343 1.237 11.876 20.359-3.151 23.725-2.088-.223-4.801-.661-6.628-1.722a8.14 8.14 0 0 1-3.856-5.166c-1.867-8.152 5.903-15.489 13.635-16.837"/><path fill="#f5f4f2" d="M331.327 156.95c9.834 1.07 5.403 7.927.013 11.652-2.611.036-3.32.118-5.342-1.639-2.146-4.312 2.244-7.766 5.329-10.013"/><path fill="#857b79" d="M874.764 191.637c14.455 18.636 24.334 32.725 35.602 53.998 39.432 74.447 54.532 167.029 43.793 250.387-18.376 142.635-99.903 279.981-213.253 367.719a566 566 0 0 1-79.144 51.52c-81.985 43.267-180.51 65.081-273.058 53.492-12.689-1.589-23.867-3.648-36.368-5.801l-.968-1.145c6.433 1.953 16.35 2.236 23.211 3.058 14.909 1.787 30.152 3.083 45.214 3.043 101.696-.268 203.313-35.636 285.506-95.02 121.048-88.914 213.255-226.53 235.769-376.23 12.014-79.886 4.077-158.474-27.414-233.007-10.42-24.66-23.287-49.412-39.22-71.002z"/><path fill="#60615d" d="M874.434 192.649c-3.657-4.403-8.224-9.767-11.036-14.7 4.245 4.398 7.898 8.659 11.366 13.688z"/><path fill="#3b3a3b" d="M352.336 962.952c-3.049-.436-6.928-1.144-9.785-2.237l-.171-.633-.026.538-.456-.367 1.219-.13-.005.83.459-.773 7.797 1.627z"/></svg>